<svg xmlns="http://www.w3.org/2000/svg" version="1.1" xmlns:xlink="http://www.w3.org/1999/xlink" xmlns:svgjs="http://svgjs.dev/svgjs" width="300" height="900" preserveAspectRatio="none" viewBox="0 0 300 900"><g mask="url(&quot;#SvgjsMask1028&quot;)" fill="none"><rect width="300" height="900" x="0" y="0" fill="rgba(45, 39, 10, 1)"></rect><path d="M25.767374185415125 57.24365924926306L74.54696638079105 47.761867038714016 16.28558197486608 8.464067053887142z" fill="rgba(140, 106, 12, 0.4)" class="triangle-float2"></path><path d="M253.7956858362585 393.64067794056893L295.7912999354007 415.0385120912289 317.1891340860607 373.04289799208675 275.1935199869185 351.64506384142675z" fill="rgba(140, 106, 12, 0.4)" class="triangle-float1"></path><path d="M208.24807901103364 611.9009326908695L165.43382715062697 585.1476188783744 146.71098236208778 662.7456535752319z" fill="rgba(140, 106, 12, 0.4)" class="triangle-float3"></path><path d="M137.521,934.803C161.028,935.774,184.732,927.872,197.813,908.317C212.447,886.441,216.751,858.138,204.324,834.938C191.259,810.548,165.141,794.112,137.521,795.757C112.047,797.274,94.327,819.181,83.208,842.15C73.627,861.943,74.162,884.696,85.283,903.667C96.27,922.41,115.814,933.906,137.521,934.803" fill="rgba(140, 106, 12, 0.4)" class="triangle-float1"></path><path d="M104.446,944.309C124.266,945.464,147.31,945.958,157.918,929.176C168.956,911.714,161.751,889.018,150.238,871.866C140.092,856.75,122.646,849.955,104.446,849.513C85.27,849.047,64.38,853.024,54.632,869.544C44.769,886.258,50.017,907.365,60.778,923.516C70.359,937.896,87.195,943.304,104.446,944.309" fill="rgba(140, 106, 12, 0.4)" class="triangle-float2"></path><path d="M271.034,95.104C293.138,95.875,315.154,87.132,326.872,68.374C339.275,48.519,339.481,23.626,328.65,2.871C316.914,-19.617,296.394,-39.16,271.034,-38.621C246.318,-38.096,228.185,-17.065,217.508,5.233C208.311,24.44,210.663,46.404,221.56,64.7C232.176,82.524,250.301,94.381,271.034,95.104" fill="rgba(140, 106, 12, 0.4)" class="triangle-float1"></path><path d="M150.42637397309073 883.4175664569369L140.15516177233218 830.5767604806413 87.31435579603647 840.8479726813998 97.58556799679504 893.6887786576955z" fill="rgba(140, 106, 12, 0.4)" class="triangle-float1"></path><path d="M194.961,809.596C202.834,809.267,209.997,804.873,213.657,797.894C217.082,791.363,215.561,783.721,211.88,777.331C208.192,770.929,202.331,765.96,194.961,765.441C186.59,764.851,177.825,767.524,173.336,774.615C168.566,782.15,168.661,791.99,173.35,799.576C177.825,806.815,186.458,809.951,194.961,809.596" fill="rgba(140, 106, 12, 0.4)" class="triangle-float1"></path><path d="M124.062,560.73C142.872,561.665,162.574,554.456,171.583,537.918C180.309,521.9,173.073,503.248,163.994,487.427C154.859,471.51,142.377,456.272,124.062,455.113C103.936,453.839,83.452,463.782,74.295,481.749C65.74,498.534,74.031,517.628,84.075,533.568C93.282,548.179,106.813,559.873,124.062,560.73" fill="rgba(140, 106, 12, 0.4)" class="triangle-float2"></path><path d="M-17.240121156301537 659.8806238519579L58.036203566512 687.3602372542457 47.07784576517898 618.1718890877282z" fill="rgba(140, 106, 12, 0.4)" class="triangle-float1"></path><path d="M274.86283474558593 816.8033307317158L205.4528037270369 791.5401454814702 180.18961847679122 860.9501765000192 249.59964949534026 886.2133617502649z" fill="rgba(140, 106, 12, 0.4)" class="triangle-float2"></path><path d="M208.276,203.472C216.615,203.547,225.236,201.43,229.805,194.454C234.796,186.834,235.752,176.669,230.869,168.98C226.25,161.708,216.891,160.565,208.276,160.554C199.636,160.543,190.151,161.588,185.585,168.923C180.824,176.57,182.465,186.542,187.41,194.071C191.898,200.905,200.1,203.398,208.276,203.472" fill="rgba(140, 106, 12, 0.4)" class="triangle-float1"></path><path d="M140.53030918891403 49.68879954526975L122.91807227094051-16.292425384761575 79.97535002543364 25.176879447382436z" fill="rgba(140, 106, 12, 0.4)" class="triangle-float2"></path><path d="M2.274,631.881C17.543,631.605,29.789,620.838,37.491,607.651C45.274,594.325,49.065,578.121,41.543,564.646C33.862,550.887,18.032,544.616,2.274,544.562C-13.589,544.508,-29.482,550.668,-37.463,564.377C-45.489,578.162,-43.316,595.221,-35.224,608.967C-27.26,622.497,-13.423,632.165,2.274,631.881" fill="rgba(140, 106, 12, 0.4)" class="triangle-float2"></path><path d="M320.8958792035467 779.5006414476693L257.54569766582983 752.6100847826018 230.6551410007624 815.9602663203187 294.0053225384793 842.8508229853862z" fill="rgba(140, 106, 12, 0.4)" class="triangle-float2"></path></g><defs><mask id="SvgjsMask1028"><rect width="300" height="900" fill="#ffffff"></rect></mask><style>
                @keyframes float1 {
                    0%{transform: translate(0, 0)}
                    50%{transform: translate(-10px, 0)}
                    100%{transform: translate(0, 0)}
                }

                .triangle-float1 {
                    animation: float1 5s infinite;
                }

                @keyframes float2 {
                    0%{transform: translate(0, 0)}
                    50%{transform: translate(-5px, -5px)}
                    100%{transform: translate(0, 0)}
                }

                .triangle-float2 {
                    animation: float2 4s infinite;
                }

                @keyframes float3 {
                    0%{transform: translate(0, 0)}
                    50%{transform: translate(0, -10px)}
                    100%{transform: translate(0, 0)}
                }

                .triangle-float3 {
                    animation: float3 6s infinite;
                }
            </style></defs></svg>